{"asset":{"version":"2.0","generator":"Blockbench 4.12.2 glTF exporter"},"scenes":[{"nodes":[3],"name":"blockbench_export"}],"scene":0,"nodes":[{"translation":[0,-0.125,0],"name":"lootbox","mesh":0},{"translation":[0,0.125,0],"name":"center","children":[0]},{"name":"base","children":[1]},{"children":[2]}],"bufferViews":[{"buffer":0,"byteOffset":0,"byteLength":288,"target":34962,"byteStride":12},{"buffer":0,"byteOffset":288,"byteLength":288,"target":34962,"byteStride":12},{"buffer":0,"byteOffset":576,"byteLength":192,"target":34962,"byteStride":8},{"buffer":0,"byteOffset":768,"byteLength":72,"target":34963},{"buffer":0,"byteOffset":840,"byteLength":32},{"buffer":0,"byteOffset":872,"byteLength":96},{"buffer":0,"byteOffset":968,"byteLength":32},{"buffer":0,"byteOffset":1000,"byteLength":128},{"buffer":0,"byteOffset":1128,"byteLength":44},{"buffer":0,"byteOffset":1172,"byteLength":132}],"buffers":[{"byteLength":1304,"uri":"data:application/octet-stream;base64,"}],"accessors":[{"bufferView":0,"componentType":5126,"count":24,"max":[0.012500000186264515,0.28125,0.09375],"min":[-0.012500000186264515,0,-0.09375],"type":"VEC3"},{"bufferView":1,"componentType":5126,"count":24,"max":[1,1,1],"min":[-1,-1,-1],"type":"VEC3"},{"bufferView":2,"componentType":5126,"count":24,"max":[0.421875,0.4921875],"min":[0,0.1640625],"type":"VEC2"},{"bufferView":3,"componentType":5123,"count":36,"max":[23],"min":[0],"type":"SCALAR"},{"bufferView":4,"componentType":5126,"count":8,"max":[1.2000000476837158],"min":[0],"type":"SCALAR"},{"bufferView":5,"componentType":5126,"count":8,"max":[0,0.015625,0],"min":[0,0,0],"type":"VEC3"},{"bufferView":6,"componentType":5126,"count":8,"max":[1.2000000476837158],"min":[0],"type":"SCALAR"},{"bufferView":7,"componentType":5126,"count":8,"max":[0.04361938685178757,0,0,1],"min":[-0.02181488461792469,0,0,0.9990482330322266],"type":"VEC4"},{"bufferView":8,"componentType":5126,"count":11,"max":[1.2799999713897705],"min":[0],"type":"SCALAR"},{"bufferView":9,"componentType":5126,"count":11,"max":[1,1.100000023841858,1.0499999523162842],"min":[1,0.949999988079071,0.949999988079071],"type":"VEC3"}],"materials":[{"pbrMetallicRoughness":{"metallicFactor":0,"roughnessFactor":1,"baseColorTexture":{"index":0}},"alphaMode":"MASK","alphaCutoff":0.05,"doubleSided":true}],"textures":[{"sampler":0,"source":0,"name":"lootbox.png"}],"samplers":[{"magFilter":9728,"minFilter":9728,"wrapS":33071,"wrapT":33071}],"images":[{"mimeType":"image/png","name":"lootbox.png","uri":"lootbox.png"}],"meshes":[{"primitives":[{"mode":4,"attributes":{"POSITION":0,"NORMAL":1,"TEXCOORD_0":2},"indices":3,"material":0}]}],"animations":[{"name":"idle","samplers":[{"input":4,"output":5,"interpolation":"LINEAR"},{"input":6,"output":7,"interpolation":"LINEAR"},{"input":8,"output":9,"interpolation":"LINEAR"}],"channels":[{"sampler":0,"target":{"node":2,"path":"translation"}},{"sampler":1,"target":{"node":1,"path":"rotation"}},{"sampler":2,"target":{"node":1,"path":"scale"}}]}]}